<?xml version="1.0" encoding="UTF-8"?>
<svg xmlns="http://www.w3.org/2000/svg" xmlns:xlink="http://www.w3.org/1999/xlink" width="90px" height="90px" viewBox="0 0 90 90" version="1.1">
<g id="surface1">
<path style=" stroke:none;fill-rule:nonzero;fill:rgb(0%,0%,0%);fill-opacity:1;" d="M 78.335938 43.734375 C 78.972656 44.15625 79.542969 44.589844 80.160156 44.933594 C 80.804688 45.289062 80.863281 45.765625 80.675781 46.398438 C 80.113281 48.300781 79.160156 49.976562 77.851562 51.464844 C 76.0625 53.503906 74.265625 55.527344 72.148438 57.238281 C 71.757812 57.550781 71.773438 57.90625 71.90625 58.328125 C 72.1875 59.246094 72.449219 60.175781 72.265625 61.15625 C 72.175781 61.640625 72.050781 62.121094 71.460938 62.214844 C 70.867188 62.3125 70.511719 62.007812 70.261719 61.5 C 69.96875 60.898438 69.648438 60.3125 69.160156 59.773438 C 69.074219 60.207031 68.996094 60.644531 68.898438 61.078125 C 68.773438 61.632812 68.523438 62.121094 68.066406 62.488281 C 67.433594 62.996094 66.902344 62.859375 66.691406 62.078125 C 66.488281 61.324219 66.386719 60.542969 66.222656 59.777344 C 66.171875 59.542969 66.175781 59.257812 65.898438 59.132812 C 65.570312 59.171875 65.519531 59.410156 65.625 59.632812 C 65.996094 60.429688 65.738281 61.199219 65.519531 61.949219 C 65.382812 62.421875 65.0625 62.828125 64.488281 62.8125 C 63.960938 62.796875 63.800781 62.363281 63.644531 61.957031 C 63.507812 61.601562 63.382812 61.242188 63.238281 60.894531 C 63.15625 60.699219 63.023438 60.53125 62.78125 60.570312 C 62.488281 60.617188 62.429688 60.851562 62.445312 61.085938 C 62.476562 61.582031 62.371094 62.042969 62.144531 62.476562 C 61.929688 62.890625 61.625 63.148438 61.128906 63.144531 C 60.605469 63.144531 60.464844 62.765625 60.3125 62.382812 C 60.199219 62.101562 60.152344 61.792969 59.878906 61.527344 C 59.246094 62.09375 58.691406 61.390625 58.054688 61.394531 C 56.035156 61.410156 54.007812 61.402344 52.007812 61.027344 C 48.699219 60.410156 45.347656 60.105469 42.023438 59.601562 C 33.824219 58.351562 25.871094 56.289062 18.457031 52.4375 C 16.480469 51.410156 14.4375 50.511719 12.414062 49.582031 C 11.71875 49.265625 11.308594 48.640625 10.753906 48.175781 C 10.371094 47.851562 10.828125 47.597656 11.050781 47.398438 C 13.042969 45.597656 15.15625 43.941406 17.289062 42.304688 C 20.484375 39.847656 23.953125 37.785156 27.203125 35.40625 C 27.445312 35.226562 27.683594 35.039062 27.925781 34.855469 C 27.085938 34.050781 27.082031 34.046875 26.191406 34.757812 C 25.203125 35.550781 24.132812 36.230469 23.203125 37.097656 C 23.066406 37.226562 22.902344 37.378906 22.605469 37.242188 C 23.03125 36.609375 23.675781 36.246094 24.226562 35.800781 C 25.265625 34.957031 26.371094 34.191406 27.433594 33.367188 C 28.351562 32.652344 28.921875 31.652344 29.46875 30.660156 C 29.90625 29.871094 31.113281 29.234375 32 29.449219 C 32.257812 29.511719 32.46875 29.550781 32.710938 29.382812 C 33.804688 28.625 33.808594 28.632812 34.832031 29.40625 C 35.554688 28.957031 36.269531 28.425781 37.269531 28.40625 C 37.117188 28.90625 36.609375 28.820312 36.269531 29.226562 C 37.035156 29.273438 37.613281 28.761719 38.335938 28.914062 C 37.980469 29.414062 37.371094 29.230469 37.023438 29.558594 C 37.402344 30.398438 37.554688 30.445312 38.195312 29.816406 C 38.667969 29.351562 39.054688 29.324219 39.414062 29.914062 C 39.570312 30.167969 39.800781 30.316406 40.097656 30.34375 C 43.316406 30.609375 46.417969 31.476562 49.554688 32.175781 C 56.644531 33.761719 63.503906 36.046875 70.109375 39.070312 C 72.964844 40.378906 75.761719 41.8125 78.335938 43.734375 M 34.886719 37.160156 C 34.53125 37.542969 34.132812 37.90625 33.574219 37.742188 C 32.972656 37.5625 33.082031 36.964844 33.039062 36.515625 C 32.953125 35.585938 33.015625 34.632812 32.863281 33.71875 C 32.664062 32.503906 33.125 31.265625 34.25 30.507812 C 34.328125 30.859375 34.09375 31.09375 33.984375 31.355469 C 33.78125 31.84375 33.371094 32.316406 33.359375 32.800781 C 33.328125 34.113281 33.449219 35.429688 33.527344 36.742188 C 33.539062 36.9375 33.609375 37.152344 33.828125 37.234375 C 34.097656 37.332031 34.269531 37.148438 34.402344 36.96875 C 34.863281 36.367188 35.070312 35.664062 35.085938 34.917969 C 35.125 33.382812 35.867188 32.203125 36.929688 31.078125 C 37.089844 31.570312 36.800781 31.859375 36.652344 32.179688 C 36.40625 32.703125 36.066406 33.1875 36.109375 33.8125 C 36.1875 35.074219 36.253906 36.335938 36.328125 37.597656 C 36.347656 37.890625 36.277344 38.265625 36.652344 38.363281 C 37 38.453125 37.203125 38.152344 37.359375 37.894531 C 37.949219 36.910156 38.242188 35.851562 38.074219 34.699219 C 37.972656 34.003906 38.367188 33.554688 38.792969 33.085938 C 38.425781 34.46875 38.453125 35.859375 38.351562 37.230469 C 38.800781 37.292969 38.9375 36.839844 39.324219 36.953125 C 39.335938 37.386719 39.019531 37.550781 38.707031 37.699219 C 37.789062 38.128906 37.0625 38.859375 36.125 39.265625 C 35.746094 39.425781 35.3125 39.730469 35.554688 40.261719 C 35.78125 40.757812 36.203125 40.859375 36.761719 40.78125 C 38.164062 40.59375 39.402344 39.929688 40.726562 39.519531 C 41.757812 39.199219 42.046875 38.597656 41.425781 37.71875 C 40.382812 36.226562 39.746094 34.640625 39.742188 32.78125 C 39.742188 32.042969 39.703125 31.257812 39.394531 30.542969 C 39.085938 29.824219 38.753906 29.769531 38.242188 30.308594 C 37.992188 30.574219 37.855469 30.96875 37.445312 31.066406 C 36.199219 29.242188 36.199219 29.242188 34.6875 30.085938 C 33.617188 29.019531 33.617188 29.019531 32.570312 30.160156 C 32.46875 30.273438 32.359375 30.378906 32.265625 30.5 C 31.734375 31.195312 31.027344 31.78125 30.960938 32.753906 C 30.890625 33.789062 30.777344 34.820312 30.683594 35.851562 C 30.671875 36.003906 30.664062 36.160156 30.832031 36.25 C 30.988281 36.316406 31.128906 36.261719 31.257812 36.175781 C 32.035156 35.679688 32.109375 34.753906 32.515625 33.929688 C 32.867188 35.03125 32.125 36.367188 31.066406 36.726562 C 30.789062 36.820312 30.410156 36.820312 30.492188 37.265625 C 30.828125 39.148438 31.378906 40.953125 32.511719 42.53125 C 32.726562 42.828125 32.992188 42.914062 33.292969 42.6875 C 33.566406 42.480469 33.886719 42.3125 34.054688 41.957031 C 33.660156 41.585938 32.972656 41.671875 32.664062 41.015625 C 33.734375 41.132812 34.667969 41.96875 35.757812 41.355469 C 34.910156 40.085938 34.910156 40.085938 35.882812 38.886719 C 36.117188 38.59375 35.917969 37.75 35.542969 37.609375 C 35.265625 37.503906 35.019531 37.417969 35.074219 37.117188 C 35.3125 37.148438 35.660156 37.339844 35.753906 37.058594 C 35.925781 36.53125 35.914062 35.96875 35.605469 35.324219 C 35.257812 35.957031 35.148438 36.542969 34.886719 37.160156 M 44.617188 45.6875 C 44.484375 45.066406 44.203125 45.542969 44.054688 45.644531 C 43.367188 46.101562 42.765625 46.695312 41.933594 46.878906 C 41.554688 49.96875 41.472656 50.3125 39.828125 50.492188 C 37.851562 50.703125 36.558594 49.71875 36.488281 47.53125 C 35.101562 48.296875 35.03125 49.140625 36.175781 49.914062 C 36.421875 50.078125 36.722656 50.167969 37.003906 50.277344 C 37.167969 50.339844 37.351562 50.375 37.367188 50.746094 C 36.21875 50.992188 35.730469 49.902344 34.976562 49.457031 C 34.597656 50.039062 34.59375 50.039062 34.664062 50.496094 C 34.945312 52.355469 35.804688 53.996094 36.636719 55.644531 C 37.011719 56.386719 37.496094 57.054688 38.21875 57.449219 C 39.746094 58.28125 41.257812 59.15625 43.074219 59.285156 C 44.230469 59.371094 45.375 59.617188 46.523438 59.804688 C 46.921875 59.871094 47.292969 59.796875 47.632812 59.625 C 49.738281 58.558594 51.746094 57.335938 53.433594 55.652344 C 53.628906 55.457031 53.824219 55.238281 53.941406 54.992188 C 55.097656 52.601562 55.472656 50.058594 55.464844 47.371094 C 55.117188 47.5625 55.195312 48.023438 54.796875 48.027344 C 54.808594 46 54.777344 45.804688 54.347656 45.210938 C 53.746094 44.378906 52.589844 43.886719 51.703125 44.136719 C 53.007812 44.535156 53.628906 45.441406 53.691406 46.6875 C 53.75 47.839844 53.464844 48.917969 52.492188 49.78125 C 52.925781 49.753906 53.265625 49.550781 53.621094 49.832031 C 53.234375 50.242188 52.78125 50.386719 52.292969 50.261719 C 51.550781 50.074219 50.800781 50.074219 50.046875 50.042969 C 49.277344 50.007812 48.8125 49.59375 48.582031 48.839844 C 48.261719 47.78125 48.371094 46.773438 48.585938 45.703125 C 48.855469 44.324219 50.109375 43.105469 51.472656 43.125 C 52.101562 43.136719 52.664062 43.34375 53.234375 43.542969 C 53.640625 43.683594 54.046875 43.816406 54.511719 43.636719 C 54.566406 42.984375 54.226562 42.414062 54.136719 41.800781 C 53.992188 40.800781 53.460938 40.371094 52.457031 40.21875 C 50.566406 39.933594 50.589844 39.882812 49.742188 41.589844 C 48.6875 43.726562 47.484375 45.726562 44.890625 46.28125 C 44.746094 46.3125 44.609375 46.421875 44.4375 46.25 C 44.480469 46.105469 44.53125 45.941406 44.617188 45.6875 M 32.445312 48.222656 C 32.445312 48.15625 32.445312 48.085938 32.445312 48.019531 C 32.417969 48.027344 32.394531 48.027344 32.371094 48.035156 C 31.679688 48.296875 31.15625 48.902344 30.222656 49.0625 C 31.207031 47.960938 32.777344 47.859375 33.277344 46.523438 C 30.542969 46.890625 28.773438 45.28125 27.234375 43.226562 C 27.5 44.089844 27.914062 44.835938 28.824219 45.378906 C 28.050781 45.59375 27.6875 45.320312 27.472656 44.84375 C 27.148438 44.128906 26.851562 43.40625 26.589844 42.667969 C 26.449219 42.265625 26.328125 41.808594 26.476562 41.398438 C 26.96875 40.027344 26.617188 38.523438 27.328125 37.15625 C 26.5625 37.308594 26.199219 37.738281 25.863281 38.234375 C 24.875 39.703125 23.867188 41.160156 22.859375 42.617188 C 22.730469 42.800781 22.652344 43.078125 22.246094 43.089844 C 22.796875 41.765625 23.839844 40.804688 24.496094 39.5 C 21.769531 40.285156 15.695312 46.621094 14.402344 49.917969 C 14.488281 50.125 14.683594 50.203125 14.863281 50.285156 C 17.019531 51.292969 19.179688 52.289062 21.335938 53.296875 C 21.613281 53.425781 21.832031 53.414062 22.105469 53.246094 C 22.542969 52.972656 22.992188 52.699219 23.558594 52.703125 C 23.152344 53.03125 23.136719 53.703125 22.363281 53.75 C 23.882812 54.460938 25.296875 55.003906 26.722656 55.527344 C 27.09375 55.664062 27.453125 55.675781 27.792969 55.40625 C 28.570312 54.785156 29.308594 54.140625 29.84375 53.289062 C 30.84375 51.699219 31.605469 49.988281 32.445312 48.222656 M 46.195312 42.511719 C 46.140625 43.550781 45.511719 44.425781 45.28125 45.390625 C 45.855469 45.613281 46.027344 44.265625 46.730469 45.117188 C 47.046875 44.957031 47.320312 44.695312 47.542969 44.390625 C 49.910156 41.191406 51.109375 37.613281 51.058594 33.625 C 51.050781 32.929688 50.742188 32.753906 50.097656 32.902344 C 50.097656 33.652344 50.320312 34.386719 49.914062 35.148438 C 49.550781 34.519531 49.808594 33.902344 49.714844 33.328125 C 49.664062 33.035156 49.726562 32.679688 49.332031 32.585938 C 48.425781 32.367188 47.539062 32.03125 46.601562 31.976562 C 45.546875 31.910156 45.355469 32.078125 45.03125 33.097656 C 44.917969 33.449219 44.894531 33.871094 44.34375 34.203125 C 44.488281 33.660156 44.574219 33.273438 44.699219 32.902344 C 44.832031 32.503906 44.671875 32.339844 44.292969 32.285156 C 43.230469 32.140625 42.449219 32.566406 42.019531 33.539062 C 41.929688 33.75 41.859375 33.96875 41.742188 34.164062 C 41.046875 35.328125 40.820312 36.476562 41.792969 37.617188 C 41.886719 37.726562 41.949219 37.886719 41.96875 38.03125 C 42.027344 38.503906 42.304688 38.789062 42.683594 39.015625 C 43.441406 38.148438 43.320312 36.917969 44.019531 36.042969 C 43.378906 39.460938 42.125 42.710938 41.171875 46.15625 C 42.195312 45.9375 42.484375 45.039062 43.214844 44.746094 C 43.417969 45.113281 42.976562 45.386719 43.183594 45.78125 C 44.273438 45.058594 45.097656 44.132812 45.710938 43.007812 C 45.824219 42.800781 45.804688 42.484375 46.195312 42.511719 M 64.65625 48.988281 C 63.796875 46.878906 63.234375 44.636719 62.074219 42.550781 C 61.351562 43.382812 62.203125 44.183594 61.804688 44.941406 C 61.851562 44.105469 60.964844 43.8125 60.867188 42.996094 C 60.558594 40.503906 59.515625 38.230469 58.570312 35.933594 C 58.769531 37.320312 59.585938 38.546875 59.609375 39.980469 C 58.976562 38.890625 58.800781 37.609375 58 36.355469 C 58.105469 36.792969 58.164062 37.011719 58.210938 37.230469 C 58.703125 39.636719 59.257812 42.023438 60.304688 44.261719 C 60.515625 44.71875 60.4375 44.96875 59.898438 44.996094 C 60.769531 48.082031 61.082031 51.183594 61.1875 54.320312 C 61.949219 54.238281 62.242188 53.835938 62.253906 53.238281 C 62.285156 51.949219 62.351562 50.660156 62.195312 49.371094 C 62.105469 48.644531 62.054688 47.910156 61.976562 47.101562 C 62.40625 47.296875 62.367188 47.578125 62.402344 47.816406 C 62.648438 49.496094 62.707031 51.1875 62.683594 52.882812 C 62.671875 53.804688 62.890625 54.074219 63.917969 54.382812 C 64 52.695312 63.542969 51.066406 63.574219 49.410156 C 63.714844 49.5 63.792969 49.597656 63.832031 49.710938 C 64.324219 51.171875 64.859375 52.621094 65.117188 54.148438 C 65.207031 54.683594 65.421875 54.992188 66.136719 54.804688 C 65.828125 52.859375 65.1875 51 64.65625 48.988281 M 57.417969 47.53125 C 57.515625 46.945312 57.191406 46.328125 57.511719 45.75 C 57.773438 46.722656 57.910156 47.703125 57.953125 48.703125 C 57.972656 47.042969 58.183594 45.378906 57.90625 43.707031 C 57.292969 43.824219 57.023438 44.144531 56.917969 44.609375 C 56.53125 44.492188 56.578125 44.058594 56.148438 43.871094 C 56.148438 45.125 56.140625 46.304688 56.148438 47.484375 C 56.183594 51.40625 56.125 55.320312 55.371094 59.191406 C 55.023438 60.980469 55.042969 60.972656 56.855469 60.9375 C 57.371094 60.925781 57.589844 60.726562 57.640625 60.242188 C 57.753906 59.234375 57.867188 58.234375 57.875 57.21875 C 57.898438 54.03125 57.464844 50.863281 57.417969 47.53125 M 58.753906 45.929688 C 59.210938 46.898438 59.445312 47.9375 59.105469 48.949219 C 58.746094 50.039062 58.730469 51.125 58.710938 52.234375 C 58.695312 52.964844 58.632812 53.703125 58.511719 54.421875 C 58.171875 56.425781 58.398438 58.46875 58.078125 60.46875 C 58.046875 60.648438 58.050781 60.863281 58.277344 60.898438 C 58.644531 60.957031 59.035156 61.050781 59.382812 60.839844 C 59.605469 60.707031 59.539062 60.476562 59.417969 60.304688 C 59.035156 59.734375 59.230469 59.21875 59.492188 58.664062 C 60.203125 57.167969 60.644531 55.554688 60.703125 53.933594 C 60.777344 51.847656 60.53125 49.75 60.144531 47.679688 C 59.964844 46.714844 59.578125 45.871094 58.902344 45.152344 C 58.632812 45.359375 58.71875 45.597656 58.753906 45.929688 M 33.089844 48.113281 C 32.640625 49.070312 31.949219 49.976562 32.003906 51.070312 C 32.09375 52.910156 32.308594 54.742188 32.484375 56.574219 C 32.515625 56.898438 32.601562 57.257812 32.980469 57.359375 C 33.542969 57.507812 34.109375 57.636719 34.679688 57.738281 C 35.101562 57.8125 35.296875 57.589844 35.238281 57.167969 C 35.210938 56.941406 35.1875 56.707031 35.105469 56.5 C 34.449219 54.839844 34.363281 53.058594 33.980469 51.339844 C 33.71875 50.167969 33.828125 48.949219 33.417969 47.519531 C 33.265625 47.808594 33.207031 47.921875 33.089844 48.113281 M 36.234375 47.09375 C 36.769531 46.679688 37.089844 46.035156 37.636719 45.699219 C 37.914062 45.707031 37.816406 46.046875 38.132812 46.023438 C 40.199219 44.339844 41.355469 42.011719 42.484375 39.449219 C 41.503906 39.632812 40.855469 40.046875 40.15625 40.308594 C 39.285156 40.636719 38.882812 41.230469 38.796875 42.128906 C 38.71875 42.953125 38.371094 43.671875 37.832031 44.316406 C 37.109375 45.183594 36.167969 45.691406 35.148438 46.109375 C 34.738281 46.273438 34.191406 46.378906 34.113281 46.898438 C 34.007812 47.554688 34 48.234375 34.222656 48.984375 C 34.746094 48.285156 34.796875 47.429688 35.308594 46.804688 C 35.574219 47.078125 35.3125 47.410156 35.648438 47.585938 C 35.8125 47.449219 35.984375 47.304688 36.234375 47.09375 M 32.304688 43.664062 C 32.65625 43.363281 32.394531 43.128906 32.21875 42.890625 C 31.859375 42.414062 31.300781 41.984375 31.183594 41.457031 C 31.027344 40.734375 30.691406 40.089844 30.519531 39.386719 C 30.394531 38.863281 30.066406 38.742188 29.617188 39.039062 C 29.089844 39.386719 28.574219 39.75 28.058594 40.117188 C 27.132812 40.773438 27.054688 41.191406 27.660156 42.3125 C 28.675781 42.101562 29.636719 41.582031 30.730469 41.65625 C 29.988281 42.007812 29.207031 42.234375 28.433594 42.484375 C 28.164062 42.574219 27.78125 42.578125 27.753906 42.976562 C 27.722656 43.402344 28.039062 43.582031 28.382812 43.726562 C 29.660156 44.273438 30.933594 44.261719 32.304688 43.664062 M 63.347656 55.5625 C 63.648438 55.160156 63.59375 54.859375 63.164062 54.566406 C 62.480469 54.09375 60.960938 54.785156 60.816406 55.707031 C 60.636719 56.871094 60.28125 57.964844 59.78125 59.023438 C 59.660156 59.28125 59.566406 59.542969 59.683594 59.824219 C 60.027344 60.667969 60.355469 61.515625 60.726562 62.34375 C 60.964844 62.878906 61.332031 62.820312 61.667969 62.429688 C 61.980469 62.0625 62.070312 61.585938 61.984375 61.140625 C 61.761719 59.992188 61.9375 58.90625 62.238281 57.789062 C 62.453125 56.984375 63.152344 56.46875 63.347656 55.5625 M 64.433594 62.386719 C 64.871094 62.453125 65 62.113281 65.132812 61.824219 C 65.378906 61.28125 65.511719 60.644531 65.289062 60.125 C 64.671875 58.691406 65.460938 57.714844 66.234375 56.714844 C 66.402344 56.496094 66.699219 56.316406 66.453125 56.015625 C 66.195312 55.699219 66.003906 55.261719 65.480469 55.273438 C 63.933594 55.304688 63.925781 55.300781 63.304688 56.769531 C 63.097656 57.257812 62.945312 57.765625 62.769531 58.261719 C 62.691406 58.480469 62.621094 58.734375 62.746094 58.925781 C 63.429688 59.992188 63.753906 61.226562 64.433594 62.386719 M 66.769531 60.4375 C 66.863281 60.910156 66.9375 61.382812 67.054688 61.847656 C 67.171875 62.332031 67.449219 62.398438 67.824219 62.082031 C 68.183594 61.773438 68.394531 61.378906 68.503906 60.921875 C 68.859375 59.460938 68.550781 57.941406 68.90625 56.472656 C 69.003906 56.082031 68.171875 55.597656 67.773438 55.753906 C 67.1875 55.984375 66.253906 57.460938 66.34375 58.074219 C 66.457031 58.824219 66.605469 59.566406 66.769531 60.4375 M 69.78125 59.675781 C 70.078125 60.230469 70.386719 60.78125 70.671875 61.347656 C 70.816406 61.636719 70.972656 61.898438 71.34375 61.832031 C 71.703125 61.769531 71.816406 61.46875 71.851562 61.15625 C 71.925781 60.476562 71.910156 59.796875 71.734375 59.125 C 71.605469 58.640625 71.4375 58.140625 71.429688 57.648438 C 71.410156 56.574219 71.246094 56.277344 70.308594 55.835938 C 69.808594 55.601562 69.433594 55.667969 69.347656 56.234375 C 69.171875 57.375 68.917969 58.542969 69.78125 59.675781 M 55.753906 44.578125 C 55.105469 40.984375 54.0625 37.511719 52.554688 34.1875 C 52.386719 33.816406 52.121094 33.492188 51.722656 33.234375 C 51.683594 33.613281 51.796875 33.867188 51.902344 34.121094 C 52.96875 36.714844 53.925781 39.34375 54.617188 42.070312 C 54.886719 43.121094 55.003906 44.242188 55.757812 45.253906 C 55.757812 44.988281 55.757812 44.839844 55.753906 44.578125 M 53.5 39.632812 C 53.078125 38.101562 52.417969 36.679688 51.542969 35.324219 C 51.320312 36.742188 51.015625 38.125 50.65625 39.5625 C 51.164062 39.632812 51.585938 39.6875 52.097656 39.757812 C 51.859375 39.507812 51.5 39.613281 51.433594 39.246094 C 51.957031 39.144531 52.359375 39.289062 52.675781 39.714844 C 52.933594 40.0625 53.21875 40.089844 53.5 39.632812 M 30.054688 37.984375 C 30.054688 37.289062 30.054688 36.59375 30.054688 35.828125 C 29.265625 36.375 28.601562 37.023438 27.914062 37.644531 C 27.152344 38.332031 27.242188 39.1875 27.269531 40.183594 C 28.175781 39.523438 28.964844 38.941406 29.835938 38.492188 C 29.976562 38.417969 30.039062 38.273438 30.054688 37.984375 M 31.351562 30.980469 C 31.539062 30.636719 31.949219 30.421875 31.945312 29.96875 C 31.296875 29.679688 30.300781 30.113281 29.832031 30.9375 C 29.402344 31.6875 28.863281 32.355469 28.378906 33.066406 C 28.15625 33.398438 27.449219 33.734375 27.875 34.148438 C 28.328125 34.585938 28.769531 33.972656 29.144531 33.671875 C 29.378906 33.488281 29.535156 33.207031 29.765625 33.011719 C 30.40625 32.464844 30.710938 31.660156 31.351562 30.980469 M 31.5625 44.296875 C 30.695312 44.621094 29.808594 44.558594 28.867188 44.355469 C 29.578125 45.539062 30.667969 45.546875 31.730469 45.527344 C 32.332031 45.515625 32.9375 45.378906 33.460938 45.027344 C 33.882812 44.746094 34.023438 44.46875 33.515625 44.101562 C 33.140625 43.832031 32.820312 43.625 32.378906 43.992188 C 32.195312 44.144531 31.914062 44.179688 31.5625 44.296875 M 54.71875 59.253906 C 54.449219 58.472656 53.785156 58.734375 53.351562 58.878906 C 52.539062 59.140625 52.914062 59.957031 52.726562 60.519531 C 54.320312 61.125 54.84375 60.8125 54.71875 59.253906 M 54.480469 34.507812 C 54.796875 35.980469 55.113281 37.453125 55.433594 38.925781 C 55.523438 38.109375 55.695312 37.339844 55.792969 36.5625 C 55.964844 35.203125 55.894531 35.054688 54.480469 34.507812 M 58.671875 41.105469 C 58.359375 39.925781 58.042969 38.746094 57.726562 37.566406 C 57.789062 39.472656 58.15625 41.316406 58.660156 43.140625 C 58.804688 43.664062 59.105469 43.921875 59.644531 44.085938 C 59.316406 43.082031 59.011719 42.152344 58.671875 41.105469 M 33.285156 45.570312 C 32.765625 45.75 32.246094 45.933594 31.542969 45.996094 C 34.1875 46.34375 35.710938 45.722656 35.625 44.542969 C 34.632812 44.292969 34.078125 45.042969 33.285156 45.570312 M 54.796875 37.996094 C 54.621094 37 54.433594 36 54.019531 35.070312 C 53.878906 34.746094 53.746094 34.277344 53.105469 34.503906 C 53.96875 36.507812 54.75 38.496094 55.339844 40.558594 C 55.167969 39.746094 54.996094 38.933594 54.796875 37.996094 M 61.921875 36.214844 C 61.230469 35.992188 60.570312 35.644531 59.75 35.546875 C 60.328125 36.355469 61.023438 36.894531 61.734375 37.414062 C 62.085938 37.675781 62.316406 37.585938 62.539062 37.25 C 62.964844 36.605469 62.546875 36.40625 61.921875 36.214844 M 31.390625 56.949219 C 31.792969 56.976562 31.859375 56.773438 31.78125 56.425781 C 31.644531 55.8125 31.535156 55.191406 31.40625 54.574219 C 31.34375 54.261719 31.183594 54.035156 30.851562 53.957031 C 30.730469 54.339844 30.699219 56.246094 30.78125 56.515625 C 30.859375 56.773438 31.066406 56.851562 31.390625 56.949219 M 28.96875 55.363281 C 28.914062 55.476562 28.832031 55.578125 28.804688 55.699219 C 28.746094 55.929688 28.761719 56.171875 29.027344 56.269531 C 29.398438 56.410156 29.78125 56.644531 30.179688 56.457031 C 30.453125 56.328125 30.378906 56.003906 30.324219 55.773438 C 30.21875 55.320312 30.257812 54.824219 29.964844 54.402344 C 29.460938 54.527344 29.371094 55.03125 28.96875 55.363281 M 41.730469 33.203125 C 41.730469 32.84375 41.503906 32.886719 41.261719 32.933594 C 40.304688 33.128906 39.992188 34.394531 40.707031 35.417969 C 41.136719 34.738281 41.40625 34.015625 41.730469 33.203125 M 37.792969 42.8125 C 37.972656 42.578125 37.710938 42.320312 37.832031 42.082031 C 37.957031 41.839844 37.964844 41.625 37.648438 41.566406 C 37.34375 41.507812 37.054688 41.601562 37.027344 41.953125 C 36.96875 42.796875 36.675781 43.519531 36.027344 44.109375 C 36.914062 44.132812 37.3125 43.488281 37.792969 42.8125 M 29.320312 35.925781 C 30.253906 35.15625 30.253906 35.15625 30.027344 34.613281 C 29.324219 35.175781 28.890625 35.929688 28.40625 36.640625 C 28.683594 36.425781 28.960938 36.207031 29.320312 35.925781 M 57.503906 39.851562 C 57.476562 39.753906 57.453125 39.65625 57.417969 39.5625 C 57.316406 39.296875 57.097656 39.125 56.84375 39.207031 C 56.550781 39.300781 56.570312 39.621094 56.636719 39.851562 C 56.734375 40.199219 56.957031 40.519531 57.355469 40.492188 C 57.695312 40.472656 57.53125 40.15625 57.503906 39.851562 M 56.382812 41.261719 C 56.308594 40.765625 56.230469 40.265625 56.152344 39.769531 C 56.160156 41.027344 56.121094 42.292969 56.859375 43.40625 C 56.707031 42.734375 56.554688 42.0625 56.382812 41.261719 M 58.4375 48.679688 C 58.472656 48.84375 58.390625 49.03125 58.535156 49.183594 C 58.894531 48.199219 58.882812 47.652344 58.4375 46.796875 C 58.4375 47.46875 58.4375 48.015625 58.4375 48.679688 M 50.527344 59.597656 C 50.316406 59.765625 50.074219 59.910156 50.054688 60.238281 C 50.347656 60.34375 50.628906 60.421875 50.980469 60.339844 C 51.007812 60.003906 51.15625 59.640625 50.527344 59.597656 M 36.578125 44.46875 C 36.117188 44.578125 36.027344 44.9375 35.945312 45.378906 C 36.464844 45.148438 36.792969 44.816406 37.171875 44.316406 C 36.90625 44.386719 36.789062 44.414062 36.578125 44.46875 M 61.386719 39.164062 C 61.296875 38.984375 61.3125 38.695312 60.945312 38.769531 C 60.835938 39.269531 61.003906 39.59375 61.488281 39.777344 C 61.621094 39.546875 61.460938 39.410156 61.386719 39.164062 Z M 61.386719 39.164062 "/>
<path style=" stroke:none;fill-rule:nonzero;fill:rgb(0%,0%,0%);fill-opacity:1;" d="M 31.246094 58.316406 C 30.070312 57.941406 28.953125 57.585938 27.734375 57.199219 C 28.152344 56.871094 28.421875 57.046875 28.660156 57.128906 C 32.1875 58.339844 35.808594 59.1875 39.5 59.636719 C 41.605469 59.894531 43.707031 60.164062 45.808594 60.464844 C 46.148438 60.515625 46.496094 60.519531 46.914062 60.761719 C 46.144531 60.957031 45.507812 60.855469 44.875 60.71875 C 42.351562 60.164062 39.757812 60.117188 37.222656 59.652344 C 35.230469 59.289062 33.242188 58.921875 31.246094 58.316406 Z M 31.246094 58.316406 "/>
<path style=" stroke:none;fill-rule:nonzero;fill:rgb(0%,0%,0%);fill-opacity:1;" d="M 40.691406 29.304688 C 40.4375 29.210938 40.167969 29.289062 39.949219 28.835938 C 42.53125 29.195312 44.894531 29.945312 47.300781 30.542969 C 46.746094 30.761719 46.226562 30.523438 45.703125 30.425781 C 45.15625 30.328125 44.621094 30.171875 44.078125 30.050781 C 43.511719 29.921875 42.945312 29.808594 42.375 29.683594 C 41.835938 29.5625 41.292969 29.441406 40.691406 29.304688 Z M 40.691406 29.304688 "/>
<path style=" stroke:none;fill-rule:nonzero;fill:rgb(0%,0%,0%);fill-opacity:1;" d="M 72.078125 64.65625 C 71.164062 64.660156 70.3125 64.660156 69.421875 64.660156 C 69.539062 64.371094 69.828125 64.3125 70.109375 64.285156 C 70.535156 64.242188 70.964844 64.226562 71.394531 64.207031 C 72.453125 64.164062 73.546875 64.226562 74.230469 63.132812 C 73.878906 64.144531 73.152344 64.59375 72.078125 64.65625 Z M 72.078125 64.65625 "/>
<path style=" stroke:none;fill-rule:nonzero;fill:rgb(0%,0%,0%);fill-opacity:1;" d="M 55.332031 61.65625 C 56.160156 61.589844 56.917969 61.441406 57.679688 61.679688 C 56.3125 62.132812 54.9375 62.140625 53.363281 61.789062 C 54.101562 61.414062 54.691406 61.664062 55.332031 61.65625 Z M 55.332031 61.65625 "/>
<path style=" stroke:none;fill-rule:nonzero;fill:rgb(0%,0%,0%);fill-opacity:1;" d="M 41.289062 28.488281 C 40.429688 28.421875 39.640625 28.355469 38.847656 28.292969 C 40.195312 28.015625 41.523438 28.015625 42.996094 28.488281 C 42.332031 28.789062 41.84375 28.523438 41.289062 28.488281 Z M 41.289062 28.488281 "/>
<path style=" stroke:none;fill-rule:nonzero;fill:rgb(0%,0%,0%);fill-opacity:1;" d="M 77.621094 52.988281 C 77.261719 53.4375 76.972656 53.878906 76.511719 54.148438 C 76.460938 54.101562 76.410156 54.054688 76.355469 54.011719 C 76.972656 53.253906 77.589844 52.496094 78.207031 51.738281 C 78.261719 51.777344 78.320312 51.820312 78.375 51.859375 C 78.242188 52.285156 77.925781 52.601562 77.621094 52.988281 Z M 77.621094 52.988281 "/>
<path style=" stroke:none;fill-rule:nonzero;fill:rgb(0%,0%,0%);fill-opacity:1;" d="M 73.679688 56.976562 C 73.332031 57.195312 73.128906 57.558594 72.601562 57.597656 C 72.933594 57 73.378906 56.683594 73.894531 56.429688 C 74.078125 56.710938 73.828125 56.800781 73.679688 56.976562 Z M 73.679688 56.976562 "/>
<path style=" stroke:none;fill-rule:nonzero;fill:rgb(0%,0%,0%);fill-opacity:1;" d="M 8.355469 48.441406 C 8.382812 48.292969 8.410156 48.203125 8.464844 48 C 8.785156 48.511719 8.707031 48.957031 8.667969 49.519531 C 8.277344 49.175781 8.375 48.820312 8.355469 48.441406 Z M 8.355469 48.441406 "/>
<path style=" stroke:none;fill-rule:nonzero;fill:rgb(0%,0%,0%);fill-opacity:1;" d="M 45.648438 56.140625 C 44.609375 55.875 44.398438 55 43.945312 54.222656 C 45.074219 53.832031 46.160156 53.976562 47.21875 53.882812 C 47.378906 55.007812 46.695312 56.027344 45.648438 56.140625 Z M 45.648438 56.140625 "/>
<path style=" stroke:none;fill-rule:nonzero;fill:rgb(0%,0%,0%);fill-opacity:1;" d="M 54.554688 48.761719 C 54.832031 48.640625 55.058594 48.632812 55.128906 48.925781 C 55.175781 49.136719 55.03125 49.308594 54.863281 49.425781 C 54.699219 49.542969 54.507812 49.496094 54.386719 49.367188 C 54.167969 49.140625 54.367188 48.964844 54.554688 48.761719 Z M 54.554688 48.761719 "/>
<path style=" stroke:none;fill-rule:nonzero;fill:rgb(0%,0%,0%);fill-opacity:1;" d="M 28.265625 46.53125 C 28.40625 46.34375 28.554688 46.421875 28.679688 46.484375 C 29.652344 46.96875 30.660156 47.214844 31.746094 47.027344 C 31.796875 47.015625 31.863281 47.089844 31.929688 47.128906 C 31.050781 47.753906 29.507812 47.515625 28.265625 46.53125 Z M 28.265625 46.53125 "/>
<path style=" stroke:none;fill-rule:nonzero;fill:rgb(0%,0%,0%);fill-opacity:1;" d="M 49.894531 38.496094 C 49.425781 40.492188 48.757812 42.335938 47.429688 43.882812 C 48.472656 41.964844 49.265625 39.957031 49.691406 37.710938 C 49.984375 38.003906 49.882812 38.234375 49.894531 38.496094 Z M 49.894531 38.496094 "/>
<path style=" stroke:none;fill-rule:nonzero;fill:rgb(0%,0%,0%);fill-opacity:1;" d="M 38.761719 43.648438 C 39 43.574219 39.191406 43.515625 39.40625 43.6875 C 39.351562 44.109375 39.105469 44.308594 38.707031 44.164062 C 38.421875 44.058594 38.453125 43.832031 38.761719 43.648438 Z M 38.761719 43.648438 "/>
</g>
</svg>
